<?xml version="1.0" encoding="utf-8"?>
<!-- Generator: Adobe Illustrator 15.0.0, SVG Export Plug-In . SVG Version: 6.00 Build 0)  -->
<!DOCTYPE svg PUBLIC "-//W3C//DTD SVG 1.1//EN" "http://www.w3.org/Graphics/SVG/1.1/DTD/svg11.dtd">
<svg version="1.1" id="图层_1" xmlns="http://www.w3.org/2000/svg" xmlns:xlink="http://www.w3.org/1999/xlink" x="0px" y="0px"
	 width="832px" height="832px" viewBox="0 0 832 832" enable-background="new 0 0 832 832" xml:space="preserve">
<path fill="#2AA577" d="M668.822,561.009c5.736,1.763,11.358,4.184,16.965,6.329l27.405,10.339
	c23.394,8.795,47.158,17.136,70.241,26.683c-7.012,7.386-20.13,16.352-28.791,22.559c-65.109,46.688-145.044,71.703-223.982,80.945
	c-4.334,1.15-9.688,1.28-14.166,1.792c-16.839,1.938-33.522,2.088-50.455,2.048c-9.938-0.023-20.009,0.077-29.93-0.504
	c-5.447-0.32-10.813-1.187-16.246-1.585c6.984-3.696,14.28-6.788,21.31-10.408c13.427-6.938,26.313-14.877,38.553-23.741
	c6.895-5.086,13.585-10.443,20.049-16.065c3.677-3.206,7.625-7.788,11.761-10.263c5.059-3.026,13.366-4.393,19.118-6.188
	c7.81-2.471,15.552-5.146,23.223-8.022c4.915-1.85,10.059-3.697,14.763-6.037c5.001-2.49,9.803-5.396,14.808-7.91
	c7.252-3.645,14.728-7.056,21.787-11.046C628.584,596.633,649.98,580.166,668.822,561.009z"/>
<path fill="#2AA577" d="M416.248,122.304c4.525,0.104,8.832-1.174,13.31-1.572c4.977-0.445,10.112-0.362,15.108-0.445
	c20.49-0.34,41.238-0.616,61.722,0.298c5.871,0.264,11.684,1.38,17.563,1.711l1.683,0.222c6.663,0.983,13.401,1.57,20.085,2.452
	c75.271,9.92,151.076,36.45,212.928,80.983c7.265,5.23,22.116,15.489,27.081,21.969c-23.278,9.308-46.93,17.881-70.411,26.679
	c-12.731,4.771-25.545,10.553-38.573,14.35c-23.273-25.184-47.364-41.124-77.289-57.236c-17.492-9.422-35.115-17.778-54.075-23.89
	c-6.753-2.214-13.564-4.235-20.432-6.06c-4.383-1.155-18.357-3.735-21.575-5.697c-0.158-0.098-0.316-0.206-0.476-0.308
	c-6.724-4.251-12.573-10.403-18.996-15.203c-16.263-12.225-33.715-22.776-52.094-31.496
	C426.729,126.647,421.574,124.11,416.248,122.304z"/>
<path fill="#2AA577" d="M231.029,189.402c6.904-0.301,14.395-0.74,21.266,0.025c3.326,0.369,6.693,1.353,10.065,1.813
	c1.288,0.176,2.646,0.255,3.476,1.347c-0.585,0.887-1.3,1.275-2.216,1.761c-3.095,1.633-6.691,2.775-9.925,4.165
	c-6.599,2.771-13.078,5.818-19.423,9.134c-41.952,22.11-84.639,55.052-112.189,93.91c-8.126,11.462-14.97,24.066-20.872,36.805
	c-9,19.422-15.287,39.363-17.17,60.74c-0.301,3.423-0.74,6.602-0.916,10.022c-0.145,2.827-0.731,5.791-0.849,8.603
	c-0.12,2.922,0.21,5.992,0.351,8.918c0.688,14.268,2.929,27.056,6.23,40.938c1.62,6.81,3.225,13.5,5.667,20.073
	c3.363,9.047,7.738,17.806,12.389,26.251c14.516,26.366,29.824,43.372,52.575,62.965c12.899,11.186,26.674,21.316,41.191,30.304
	c12.605,7.727,25.938,14.584,39.214,21.107c6.733,3.313,14.179,5.352,21.041,8.462c2.102,0.943,4.32,1.784,6.191,3.142l-0.017,0.561
	c-1.498,1.068-3.594,1.235-5.368,1.585c-11.377,2.259-35.512,0.329-36.519,0.057c-2.645-0.711-5.645-0.873-8.356-1.364
	c-7.867-1.422-20.395-4.026-27.441-7.765c-9.021-4.784-18.985-13.161-26.99-19.653c-42.017-34.076-78.199-78.824-94.067-131.228
	c-7.074-23.362-9.316-41.259-9.311-65.549c0.001-6.228-0.115-12.547,0.304-18.762c2.21-32.741,12.781-63.585,28.305-92.316
	c19.229-35.591,49.235-66.021,80.657-90.99c6.433-5.11,13.494-11.477,20.991-14.891c6.556-2.985,19.329-5.803,26.689-7.146
	c4.783-0.871,9.657-1.345,14.313-2.795L231.029,189.402z"/>
<path fill="#C55E51" d="M112.273,429.703c-0.053-9.705-0.963-20.125,0.287-29.731c0.267-2.049,3.791-17.377,5.24-23.169
	c1.51-6.021,4.317-12.002,6.51-17.818c23.522-62.431,76.91-106.135,135.74-133.923c8.372-3.955,17.502-7.522,26.249-10.565
	c6.687-2.325,27.845-8.304,27.845-8.304s3.396,1.777,5.13,2.6c-7.794,2.586-14.383,4.68-21.941,7.917
	c-8.527,3.651-18.076,8.699-26.123,13.292c-8.65,4.939-17.429,9.51-25.793,14.975c-4.106,2.685-7.988,5.781-12.042,8.563
	c-4.092,2.809-7.813,6.055-11.666,9.171c-21.991,17.784-39.165,38.304-53.646,62.498c-3.203,5.354-6.725,10.625-8.985,16.467
	c-0.662,1.709-2.76,11.577-3.471,15.458c-1.739,9.501-0.712,18.788,4.907,26.864c15.159,21.792,55.104,27.425,79.798,30.068
	c6.778,0.728,14.001,0.516,20.639,1.808l0.624,0.126c-6.379,1.35-13.313,1.176-19.825,1.816
	c-15.568,1.544-31.351,3.908-46.312,8.612c-13.93,4.38-30.083,11.558-37.117,25.265c-4.689,9.137-3.856,18.245-1.766,27.926
	c0.623,2.886,1.161,5.883,2.098,8.687c2.861,8.571,8.035,16.083,12.854,23.619c24.342,37.798,67.159,71.951,96.742,89.411
	c19.563,11.546,43.114,22.951,46.102,24.307c-0.511,1.206-2.222,2.104-3.383,2.612c-0.754,0.328-1.698,0.548-2.517,0.431
	c-1.552-0.229-3.207-1.089-4.746-1.527c-9.381-2.678-18.981-5.644-28.091-9.125c-60.53-23.14-115.438-62.151-144.734-121.439
	c-3.693-7.397-6.846-15.052-9.43-22.908c-2.213-6.878-3.944-14.313-6.894-20.909"/>
<path fill="#2B7EA5" d="M552.679,272.18c0.548-0.048,0.187-0.056,1.056,0.254c3.985,5.545,17.938,34.56,17.993,39.592
	c-4.587,2.287-9.616,3.974-14.41,5.804l-25.064,9.436l-74.323,28.142c-1.82,0.761-3.733,1.364-5.59,2.033
	c-0.898-7.223-3.502-14.637-5.6-21.593c-2.147-7.117-4.103-14.033-6.809-20.984c4.331-1.288,8.58-3.082,12.81-4.663l27.472-10.424
	C504.381,290.696,528.771,281.924,552.679,272.18z"/>
<path fill="#2B7EA5" d="M452.457,475.59l70.933,26.878c16.075,6.057,32.521,11.676,48.271,18.509
	c0.743,4.367-12.783,30.343-15.466,35.389l-2.678,4.822L477.13,532.16l-25.81-9.79c-2.962-1.12-5.891-2.499-8.881-3.506
	c-0.76-0.256-1.354-0.431-2.016-0.905c0.639-3.426,2.304-6.834,3.322-10.186C446.962,497.221,450.423,486.425,452.457,475.59z"/>
<path fill="#2AA577" d="M709.366,509.181c3.859,1.154,7.73,3.043,11.509,4.506c8.023,3.104,16.063,6.163,24.119,9.169l84.771,31.976
	c-6.491,10.3-16.766,20.784-25.118,29.686l-2.807,2.515c-28.179-11.357-56.848-21.718-85.265-32.491
	c-7.378-2.799-24.505-8.067-30.425-11.943c5.542-7.495,11.408-14.844,16.604-22.583C705.112,516.51,706.714,512.452,709.366,509.181
	z"/>
<path fill="#2AA577" d="M803.847,245.442l0.435-0.052c6.504,4.454,22.233,24.867,27.499,32.014
	c-12.752,5.333-25.919,9.848-38.85,14.737l-72.813,27.578c-1.975,0.735-3.933,1.51-5.874,2.319
	c-2.197-6.443-6.734-13.128-10.51-18.806c-2.165-3.26-9.904-12.292-10.425-15.361c5.546-3.731,24.57-9.864,32.001-12.682
	L803.847,245.442z"/>
<path fill="#2B7EA5" d="M0,396.189c0.033-0.134,0.067-0.268,0.099-0.402c1.407-6.146,1.547-12.904,2.39-19.186
	c1.54-11.756,3.824-23.403,6.84-34.871c18.788-72.313,64.313-134.805,127.384-174.857c66.157-42.054,146.306-56.118,222.828-39.104
	c55.836,12.271,106.886,40.55,146.9,81.379c12.387,12.465,24.404,26.447,33.854,41.296c0.386,0.602,0.76,1.21,1.12,1.825
	c-22.799,9.054-45.942,17.318-68.866,26.049L444.6,288.925c-4.66,1.754-9.435,3.869-14.219,5.178
	c-3.522-6.905-7.162-13.995-11.196-20.612c-19.138-31.139-45.548-57.164-76.964-75.84c-11.231-6.678-22.806-12.622-35.247-16.727
	c-40.077-13.218-76.499-14.786-117.213-3.325c-11.518,3.241-22.364,6.849-33.05,12.303c-38.188,19.338-70.147,49.059-92.202,85.747
	c-3.736,6.216-6.923,12.732-10.157,19.218c-5.054,10.129-10.003,20.47-13.493,31.261c-7.585,23.181-12.407,47.175-14.368,71.484
	c-0.477,5.498-1.063,11.037-1.135,16.563c-0.305,23.771,3.602,48.53,9.597,71.487c2.209,8.458,4.24,17.042,7.277,25.248
	c4.659,12.59,10.584,24.578,16.716,36.502c15.715,30.546,42.612,60.503,70.766,80.093c5.157,3.592,10.9,6.631,16.339,9.786
	c9.982,5.798,20.805,11.362,31.851,14.841c39.91,12.562,74.693,15.03,115.423,3.884c13.689-3.745,26.157-8.224,38.731-14.89
	c35.775-19.19,65.875-47.453,87.275-81.957c4.071-6.512,7.46-13.576,11.169-20.313l73.62,27.841l22.876,8.638
	c4.696,1.755,9.742,3.303,14.23,5.545c-5.447,9.871-13.516,19.316-20.832,27.868c-37.505,43.871-87.027,75.807-142.466,91.865
	c-75.568,21.856-156.727,12.78-225.602-25.229C83.748,637.488,33.029,573.901,11.33,498.611c-3.82-13.252-6.702-26.756-8.626-40.409
	C1.726,451.315,1.733,443.635,0,436.946V396.189z"/>
</svg>
