<?xml version="1.0" encoding="utf-8"?>
<!-- Generator: Adobe Illustrator 15.0.0, SVG Export Plug-In . SVG Version: 6.00 Build 0)  -->
<!DOCTYPE svg PUBLIC "-//W3C//DTD SVG 1.1//EN" "http://www.w3.org/Graphics/SVG/1.1/DTD/svg11.dtd">
<svg version="1.1" id="图层_1" xmlns="http://www.w3.org/2000/svg" xmlns:xlink="http://www.w3.org/1999/xlink" x="0px" y="0px"
	 width="768px" height="768px" viewBox="0 0 768 768" enable-background="new 0 0 768 768" xml:space="preserve">
<path fill="#231815" d="M320.391,676.057l96.907-42.69l85.933-37.754c52.24-23.048,105.36-46.313,156.941-68.813l77.593-34.022
	c5.048-1.646,8.779-6.255,9.325-11.743c0.549-5.597-2.191-10.974-6.802-13.828c-4.392-2.852-9.001-5.596-13.389-8.23l-12.073-7.461
	c-7.463-4.942-15.146-9.552-22.608-14.16c-25.696-15.852-51.378-31.729-77.042-47.629c-0.05-70.57-0.05-141.139,0-211.705
	c-0.109-7.134-2.195-13.721-6.146-19.099c-6.353-7.859-14.798-13.757-24.365-17.01c-13.935-5.256-28.59-8.362-43.459-9.218h-0.547
	l-12.292-0.219c-12.181,0-21.511,0.768-30.291,2.524c-12.104,2.024-23.742,6.227-34.352,12.402
	c-7.681,4.609-13.057,10.316-16.132,16.792c-3.402,6.803-3.294,13.718-3.294,19.206v3.511l0.111,41.265
	c-6.806-16.461-13.611-32.924-20.306-48.618l-3.949-9.44c-2.963-6.693-5.708-13.169-8.012-19.643l-0.222-0.549
	c-4.606-11.194-9.438-22.498-14.155-33.473c-4.28-9.877-8.779-20.192-12.842-30.29c-1.098-2.746-2.415-5.926-4.17-9.109
	l-2.415-4.391l-4.831-0.986c-0.937-0.225-1.891-0.374-2.853-0.439l-0.439-0.879l-0.547,0.879c-6.147,0-11.413,3.621-13.39,9.108
	c-2.745,5.816-5.269,11.632-7.683,17.449l-6.914,15.365l-0.221,0.549c-3.292,8.449-7.242,17.01-10.973,25.242l-9.879,22.718
	c-6.364,13.937-12.401,28.206-18.106,42.033c-4.501,10.895-9.076,21.759-13.719,32.596l-2.524-1.1
	c-42.97-18.569-92.62-12.485-129.833,15.915c-32.101,24.776-50.747,63.161-50.374,103.713v0.659L43.717,378.53l-0.109,0.107
	l-2.634,0.988c-2.963,1.097-6.474,2.415-9.877,4.391l-5.268,2.964l-0.221,6.146c-0.22,4.609,1.537,9,4.938,12.401
	c55.972,59.923,113.041,120.614,168.246,179.219l79.346,84.506l0.221,0.11l3.51,3.842c2.887,3.22,5.965,6.261,9.219,9.107
	l4.393,3.293l5.486-1.425c4.718-1.426,8.779-3.294,12.842-5.27l0.767-0.33l5.488-2.412L320.391,676.057z M307.659,651.146
	l-4.718,2.193l-1.099,0.549l-75.507-80.336c-53.227-56.628-108.211-115.233-162.646-172.851l33.145-12.292l12.182-4.389
	c2.963,14.598,8.56,29.083,16.901,43.241l0.11,0.329c17.34,27.161,44.055,47.003,75.069,55.753
	c27.632,7.401,56.928,5.554,83.408-5.269h0.109c37.643-16.192,65.512-49.102,75.289-88.896c1.755,0.109,3.621,0.33,5.487,0.33
	l9.328,0.107c9.108,0,16.571-0.438,23.375-1.535c13.938-1.757,30.73-4.721,46.316-12.184v54.326
	c-0.62,7.376,0.547,14.791,3.399,21.62c5.553,10.524,14.593,18.787,25.572,23.376c17.625,8.058,36.813,12.105,56.19,11.852
	c7.023,0,14.158-0.438,21.292-1.426h0.327c13.499-2.194,30.732-6.145,45.768-16.681c10.396-6.738,17.051-17.939,17.998-30.291
	c0.221-5.486,0.221-10.975,0.221-16.135l51.911,32.157l36.548,22.498l-42.582,18.656l-55.971,24.584
	c-40.059,17.342-81.872,35.779-124.236,54.654c-57.067,24.805-115.126,50.484-171.206,75.178L307.659,651.146L307.659,651.146z
	 M221.617,252.979c20.872-2.477,42.007,1.344,60.691,10.974c41.341,22.555,62.54,69.932,51.801,115.786
	c-8.638,40.42-40.943,71.551-81.652,78.689h-0.221c-22.965,4.044-46.622-0.111-66.834-11.743l-0.221-0.108
	c-19.887-11.248-35.25-29.054-43.461-50.377c-8.816-21.868-10.355-45.999-4.389-68.813v-0.107
	c6.394-23.092,20.588-43.257,40.168-57.07C190.615,261.019,205.743,255.11,221.617,252.979L221.617,252.979z M444.408,324.096
	v18.659c-0.111,0.329-0.771,1.537-3.513,3.401c-7.208,4.585-15.099,7.993-23.376,10.097c-17.446,4.647-35.56,6.28-53.558,4.83
	v-12.292c-1.848-38.42-20.413-74.109-50.813-97.676l-0.768-0.439c3.623-7.792,6.917-15.694,10.208-23.377l6.584-15.582v-0.223
	c7.135-16.789,14.596-33.91,21.837-50.375c5.816-13.39,11.853-27.219,17.67-41.044l2.195,5.267l3.73,9.438
	c23.376,57.069,47.191,113.37,69.36,165.721c0.44,1.098,0.44,3.621,0.44,5.707L444.408,324.096L444.408,324.096z M510.475,222.908
	c6.474,0.659,12.95,1.098,19.313,1.098c20.852,0,40.278-3.841,57.288-11.304v224.436c0,4.72-6.257,9.219-10.205,11.525
	c-14.543,7.358-30.678,11.014-46.976,10.645c-2.853,0-5.816,0-8.669-0.328c-16.79-1.317-30.729-5.487-41.376-12.182
	c-3.839-2.413-7.791-6.585-7.68-11.415v-0.546l0.109-174.5v-24.694c-0.109-7.681-0.221-15.364-0.109-23.045
	c10.535,4.718,22.717,7.902,37.862,10.097h0.441V222.908z M586.532,178.679l-0.221,0.219c-4.829,6.147-13.171,9.44-20.743,11.744
	c-10.756,3.292-22.498,4.938-34.789,4.938c-7.68,0.015-15.348-0.572-22.938-1.755c-10.974-2.195-22.389-4.938-31.169-11.413
	c-3.07-2.415-3.949-4.17-3.949-4.719v-0.329c0-0.658,1.098-2.632,4.83-5.156c9.943-6.056,21.119-9.806,32.704-10.975
	c6.803-0.768,13.388-1.097,19.642-1.097c16.025,0,29.854,2.193,42.254,6.802c7.024,2.634,11.524,5.488,14.049,9
	C586.969,176.814,586.859,178.24,586.532,178.679L586.532,178.679z"/>
</svg>
