<?xml version="1.0" encoding="utf-8"?>
<!-- Generator: Adobe Illustrator 15.0.0, SVG Export Plug-In . SVG Version: 6.00 Build 0)  -->
<!DOCTYPE svg PUBLIC "-//W3C//DTD SVG 1.1//EN" "http://www.w3.org/Graphics/SVG/1.1/DTD/svg11.dtd">
<svg version="1.1" id="图层_1" xmlns="http://www.w3.org/2000/svg" xmlns:xlink="http://www.w3.org/1999/xlink" x="0px" y="0px"
	 width="240px" height="240px" viewBox="0 0 240 240" enable-background="new 0 0 240 240" xml:space="preserve">
<g>
	<g>
		<path opacity="0.49" fill="#9DD9F3" enable-background="new    " d="M0,154.039v19.539c0,0,0,29.309,40,39.076
			c40,9.771,200-29.309,200-29.309v-29.308L0,154.039L0,154.039z"/>
	</g>
	<g>
		<path opacity="0.49" fill="#4FA3D1" enable-background="new    " d="M240,187.117c0,0-10,29.308-40,29.308
			S96.84,187.117,49.12,157.809c-47.72-29.307,107.368,0,107.368,0L240,187.117z"/>
	</g>
	<g>
		<path opacity="0.38" fill="#2B7EA5" enable-background="new    " d="M0,163.809v9.771c26.04,20.405,57.048,33.866,90,39.075
			c58.88,9.139,104.486-11.612,119.999-19.536L240,163.809H0L0,163.809z"/>
	</g>
	<g>
		
			<linearGradient id="SVGID_1_" gradientUnits="userSpaceOnUse" x1="346.0488" y1="762.2275" x2="720.1093" y2="584.2196" gradientTransform="matrix(0.6171 0 0 0.6171 -203.0207 -320.55)">
			<stop  offset="0" style="stop-color:#2E6EA5"/>
			<stop  offset="0.6" style="stop-color:#9DD9F3"/>
			<stop  offset="1" style="stop-color:#4FA3D1"/>
		</linearGradient>
		<path fill="url(#SVGID_1_)" d="M0,7.5v166.078c0,0,50-9.77,120,19.539c70,29.308,120-6,120-6V7.5H0z"/>
	</g>
</g>
</svg>
